HIERARCHY
ROOT Hips
{
	OFFSET 0.000000 103.266502 0.000000
	CHANNELS 6 Xposition Yposition Zposition Xrotation Yrotation Zrotation 
	JOINT Spine
	{
		OFFSET -0.002400 12.777504 0.315300
		CHANNELS 3 Xrotation Yrotation Zrotation
		JOINT Spine1
		{
			OFFSET -0.002067 5.816869 0.032633
			CHANNELS 3 Xrotation Yrotation Zrotation
			JOINT Spine1_split
			{
				OFFSET -0.002067 5.816869 0.032633
				CHANNELS 3 Xrotation Yrotation Zrotation
				JOINT Spine2
				{
					OFFSET -0.002067 5.816869 0.032633
					CHANNELS 3 Xrotation Yrotation Zrotation
					JOINT Neck
					{
						OFFSET -0.003700 21.199493 -0.826900
						CHANNELS 3 Xrotation Yrotation Zrotation
						JOINT Head
						{
							OFFSET 0.000000 20.442200 4.834800
							CHANNELS 3 Xrotation Yrotation Zrotation
							JOINT HeadTop_End
							{
								OFFSET 0.000000 34.668396 4.968400
								CHANNELS 3 Xrotation Yrotation Zrotation
								End Site
								{
									OFFSET 0.000000 0.000000 0.000000
								}
							}
						}
					}
					JOINT LeftShoulder
					{
						OFFSET 3.288150 8.794197 -1.372250
						CHANNELS 3 Xrotation Yrotation Zrotation
						JOINT LeftShoulder_split
						{
							OFFSET 3.288150 8.794197 -1.372250
							CHANNELS 3 Xrotation Yrotation Zrotation
							JOINT LeftArm
							{
								OFFSET 11.953299 -2.279007 -0.146200
								CHANNELS 3 Xrotation Yrotation Zrotation
								JOINT LeftForeArm
								{
									OFFSET 18.448900 0.000000 0.000000
									CHANNELS 3 Xrotation Yrotation Zrotation
									JOINT LeftHand
									{
										OFFSET 29.527798 0.000000 0.000000
										CHANNELS 3 Xrotation Yrotation Zrotation
										JOINT LeftHandThumb1
										{
											OFFSET 10.739754 -2.369614 9.225399
											CHANNELS 3 Xrotation Yrotation Zrotation
											JOINT LeftHandThumb2
											{
												OFFSET 4.926170 -2.844131 2.844125
												CHANNELS 3 Xrotation Yrotation Zrotation
												JOINT LeftHandThumb3
												{
													OFFSET 4.614891 -2.664413 2.664409
													CHANNELS 3 Xrotation Yrotation Zrotation
													JOINT LeftHandThumb4
													{
														OFFSET 4.432465 -2.559082 2.559083
														CHANNELS 3 Xrotation Yrotation Zrotation
														End Site
														{
															OFFSET 0.000000 0.000000 0.000000
														}
													}
												}
											}
										}
										JOINT LeftHandIndex1
										{
											OFFSET 26.467674 0.187653 6.405298
											CHANNELS 3 Xrotation Yrotation Zrotation
											JOINT LeftHandIndex2
											{
												OFFSET 8.792900 0.000000 0.000000
												CHANNELS 3 Xrotation Yrotation Zrotation
												JOINT LeftHandIndex3
												{
													OFFSET 10.075203 0.000000 0.000000
													CHANNELS 3 Xrotation Yrotation Zrotation
													End Site
													{
														OFFSET 0.000000 0.000000 0.000000
													}
												}
											}
										}
										JOINT LeftHandMiddle1
										{
											OFFSET 25.764404 0.000000 0.000000
											CHANNELS 3 Xrotation Yrotation Zrotation
											JOINT LeftHandMiddle2
											{
												OFFSET 9.393974 0.000000 0.000000
												CHANNELS 3 Xrotation Yrotation Zrotation
												JOINT LeftHandMiddle3
												{
													OFFSET 10.771950 0.000000 0.000000
													CHANNELS 3 Xrotation Yrotation Zrotation
													End Site
													{
														OFFSET 0.000000 0.000000 0.000000
													}
												}
											}
										}
										JOINT LeftHandRing1
										{
											OFFSET 24.660927 0.144547 -6.225808
											CHANNELS 3 Xrotation Yrotation Zrotation
											JOINT LeftHandRing2
											{
												OFFSET 9.393799 0.000000 0.000000
												CHANNELS 3 Xrotation Yrotation Zrotation
												JOINT LeftHandRing3
												{
													OFFSET 9.928497 0.000000 0.000000
													CHANNELS 3 Xrotation Yrotation Zrotation
													End Site
													{
														OFFSET 0.000000 0.000000 0.000000
													}
												}
											}
										}
										JOINT LeftHandPinky1
										{
											OFFSET 23.655350 0.125290 -12.815412
											CHANNELS 3 Xrotation Yrotation Zrotation
											JOINT LeftHandPinky2
											{
												OFFSET 8.425102 0.000000 0.000000
												CHANNELS 3 Xrotation Yrotation Zrotation
												JOINT LeftHandPinky3
												{
													OFFSET 8.147003 0.000000 0.000000
													CHANNELS 3 Xrotation Yrotation Zrotation
													End Site
													{
														OFFSET 0.000000 0.000000 0.000000
													}
												}
											}
										}
									}
								}
							}
						}
					}
					JOINT RightShoulder
					{
						OFFSET -3.249400 8.794197 -1.372250
						CHANNELS 3 Xrotation Yrotation Zrotation
						JOINT RightShoulder_split
						{
							OFFSET -3.249400 8.794197 -1.372250
							CHANNELS 3 Xrotation Yrotation Zrotation
							JOINT RightArm
							{
								OFFSET -11.953299 -2.279007 -0.146200
								CHANNELS 3 Xrotation Yrotation Zrotation
								JOINT RightForeArm
								{
									OFFSET -18.448900 0.000000 0.000000
									CHANNELS 3 Xrotation Yrotation Zrotation
									JOINT RightHand
									{
										OFFSET -29.527802 0.000000 0.000000
										CHANNELS 3 Xrotation Yrotation Zrotation
										JOINT RightHandThumb1
										{
											OFFSET -10.739754 -2.369614 9.225399
											CHANNELS 3 Xrotation Yrotation Zrotation
											JOINT RightHandThumb2
											{
												OFFSET -4.926170 -2.844131 2.844125
												CHANNELS 3 Xrotation Yrotation Zrotation
												JOINT RightHandThumb3
												{
													OFFSET -4.614891 -2.664413 2.664409
													CHANNELS 3 Xrotation Yrotation Zrotation
													JOINT RightHandThumb4
													{
														OFFSET -4.432465 -2.559082 2.559083
														CHANNELS 3 Xrotation Yrotation Zrotation
														End Site
														{
															OFFSET 0.000000 0.000000 0.000000
														}
													}
												}
											}
										}
										JOINT RightHandIndex1
										{
											OFFSET -26.467674 0.187653 6.405298
											CHANNELS 3 Xrotation Yrotation Zrotation
											JOINT RightHandIndex2
											{
												OFFSET -8.792900 0.000000 0.000000
												CHANNELS 3 Xrotation Yrotation Zrotation
												JOINT RightHandIndex3
												{
													OFFSET -10.075203 0.000000 0.000000
													CHANNELS 3 Xrotation Yrotation Zrotation
													End Site
													{
														OFFSET 0.000000 0.000000 0.000000
													}
												}
											}
										}
										JOINT RightHandMiddle1
										{
											OFFSET -25.764404 0.000000 0.000000
											CHANNELS 3 Xrotation Yrotation Zrotation
											JOINT RightHandMiddle2
											{
												OFFSET -9.393974 0.000000 0.000000
												CHANNELS 3 Xrotation Yrotation Zrotation
												JOINT RightHandMiddle3
												{
													OFFSET -10.771950 0.000000 0.000000
													CHANNELS 3 Xrotation Yrotation Zrotation
													End Site
													{
														OFFSET 0.000000 0.000000 0.000000
													}
												}
											}
										}
										JOINT RightHandRing1
										{
											OFFSET -24.660927 0.144547 -6.225808
											CHANNELS 3 Xrotation Yrotation Zrotation
											JOINT RightHandRing2
											{
												OFFSET -9.393799 0.000000 0.000000
												CHANNELS 3 Xrotation Yrotation Zrotation
												JOINT RightHandRing3
												{
													OFFSET -9.928497 0.000000 0.000000
													CHANNELS 3 Xrotation Yrotation Zrotation
													End Site
													{
														OFFSET 0.000000 0.000000 0.000000
													}
												}
											}
										}
										JOINT RightHandPinky1
										{
											OFFSET -23.655350 0.125290 -12.815412
											CHANNELS 3 Xrotation Yrotation Zrotation
											JOINT RightHandPinky2
											{
												OFFSET -8.425102 0.000000 0.000000
												CHANNELS 3 Xrotation Yrotation Zrotation
												JOINT RightHandPinky3
												{
													OFFSET -8.147003 0.000000 0.000000
													CHANNELS 3 Xrotation Yrotation Zrotation
													End Site
													{
														OFFSET 0.000000 0.000000 0.000000
													}
												}
											}
										}
									}
								}
							}
						}
					}
				}
			}
		}
	}
	JOINT LeftUpLeg
	{
		OFFSET 11.394100 -6.187798 -0.413800
		CHANNELS 3 Xrotation Yrotation Zrotation
		JOINT LeftLeg
		{
			OFFSET 0.430247 -32.302673 3.732800
			CHANNELS 3 Xrotation Yrotation Zrotation
			JOINT LeftFoot
			{
				OFFSET -0.430247 -48.264931 -6.423300
				CHANNELS 3 Xrotation Yrotation Zrotation
				JOINT LeftToeBase
				{
					OFFSET 4.230900 -16.068199 23.438400
					CHANNELS 3 Xrotation Yrotation Zrotation
					JOINT LeftToe_End
					{
						OFFSET 4.510700 0.695400 19.974600
						CHANNELS 3 Xrotation Yrotation Zrotation
						End Site
						{
							OFFSET 0.000000 0.000000 0.000000
						}
					}
				}
			}
		}
	}
	JOINT RightUpLeg
	{
		OFFSET -11.333700 -6.187798 -0.413800
		CHANNELS 3 Xrotation Yrotation Zrotation
		JOINT RightLeg
		{
			OFFSET -0.430392 -32.302628 3.733000
			CHANNELS 3 Xrotation Yrotation Zrotation
			JOINT RightFoot
			{
				OFFSET 0.430392 -48.264973 -6.423500
				CHANNELS 3 Xrotation Yrotation Zrotation
				JOINT RightToeBase
				{
					OFFSET -4.230900 -16.068199 23.438400
					CHANNELS 3 Xrotation Yrotation Zrotation
					JOINT RightToe_End
					{
						OFFSET -4.510700 0.695400 19.974600
						CHANNELS 3 Xrotation Yrotation Zrotation
						End Site
						{
							OFFSET 0.000000 0.000000 0.000000
						}
					}
				}
			}
		}
	}
}
MOTION
Frames: 6
Frame Time: 0.016667
-0.188535 94.284843 0.075363 -6.091886 -43.084167 -4.028551 5.833573 4.695130 -1.240660 11.836540 9.037616 -3.083968 0.000000 0.000000 0.000000 11.836546 9.037618 -3.083971 -4.303051 -1.272946 0.206310 -6.271934 20.437796 -0.377164 -0.000001 0.000000 0.000000 1.392463 -0.696055 -7.877842 0.000000 0.000000 0.000000 -14.260089 2.394337 -63.277106 9.865070 -47.524914 5.927960 16.172831 0.915172 18.795403 9.163605 4.814112 -5.499026 -0.335351 0.032539 0.783686 0.000005 0.000006 0.000004 -0.000002 0.000001 0.000000 -0.902009 -6.980960 -3.808410 0.033405 0.804237 -16.418981 -0.000002 -0.000002 0.000000 1.947856 9.683084 -14.539804 -0.456428 -1.565439 -21.881027 -0.000001 0.000000 -0.000002 2.605861 14.896815 -31.345251 -0.576870 -2.712387 -32.011553 0.000000 -0.000000 -0.000000 4.170581 18.495025 -34.987309 -0.706802 -5.788633 -39.372940 -0.000004 0.000001 -0.000003 1.410926 9.461494 9.792744 0.000000 0.000000 0.000000 1.220049 -24.270690 60.532920 -6.660702 41.858398 8.043837 6.225256 12.322334 11.673327 -8.895848 -4.903137 -0.383725 7.904825 -19.192471 -2.856857 0.000002 -0.000003 0.000001 -0.000003 -0.000000 -0.000002 -1.085499 -1.215494 4.525238 0.142127 -1.115548 16.942614 0.000001 -0.000003 -0.000001 -0.663637 -2.903900 12.731585 -0.660566 1.813462 30.579006 -0.000001 0.000003 -0.000002 2.423624 -7.404568 21.763267 -0.989708 3.764321 37.431148 -0.000001 0.000003 -0.000000 3.481027 -10.055082 24.322731 -1.458322 7.872018 41.091972 -0.000002 -0.000001 -0.000000 -30.528272 4.939434 14.029995 33.600699 -13.723006 -0.142485 -0.499458 0.502683 -8.887002 -2.319090 -3.216984 0.802960 -0.000000 0.000001 -0.000000 -6.240909 -12.866844 -16.842335 32.321049 -9.244133 -0.477196 -18.022424 -3.759877 17.730285 -1.784982 -0.356687 0.333182 -0.000000 -0.000001 -0.000000 
-0.204968 94.252563 0.078118 -5.909064 -43.067925 -3.866750 5.784452 4.611550 -1.264774 11.734908 8.869611 -3.113897 0.000000 0.000000 0.000000 11.734906 8.869619 -3.113901 -4.166003 -0.932299 0.146253 -6.156641 20.430127 -0.327628 -0.000001 0.000000 -0.000000 1.386623 -0.844141 -7.964507 0.000000 0.000000 0.000000 -14.201902 2.560086 -62.985361 9.704263 -47.394447 5.847724 16.129183 0.756310 18.624094 8.640754 4.433212 -5.561625 -0.408220 0.793601 0.350493 0.000002 0.000006 0.000003 -0.000000 0.000001 0.000002 -1.041388 -6.906978 -4.872317 0.025676 0.590432 -17.734649 -0.000001 0.000001 0.000000 2.035064 9.279539 -16.022048 -0.473444 -1.804227 -24.052875 0.000001 0.000000 -0.000001 2.690491 14.538191 -32.911919 -0.496770 -2.772643 -33.741281 0.000001 -0.000001 -0.000002 4.266842 18.108539 -37.030284 -0.686429 -5.727439 -41.165588 0.000001 -0.000001 -0.000002 1.382081 9.291156 9.911533 0.000000 0.000000 0.000000 1.351743 -24.130078 60.409820 -6.095274 41.947176 7.777843 6.458482 12.305875 11.387820 -8.420289 -4.538848 0.140671 7.828456 -18.508795 -2.441042 0.000003 -0.000004 0.000004 -0.000000 0.000000 0.000001 -1.150893 -0.748953 3.855740 0.139048 -1.114659 16.972387 -0.000000 -0.000000 0.000000 -0.656019 -2.941665 12.234581 -0.660083 1.806538 30.514024 0.000001 -0.000000 -0.000000 2.492890 -7.589658 21.296021 -0.992150 3.759901 37.371141 -0.000000 0.000001 0.000001 3.629656 -10.398262 23.891189 -1.459807 7.869066 41.061882 -0.000001 -0.000003 -0.000000 -30.709757 4.874455 13.972986 33.694819 -13.653429 -0.129463 -0.527185 0.503562 -8.918917 -2.316067 -3.236156 0.830647 -0.000000 -0.000003 -0.000000 -6.537837 -12.783390 -16.852409 32.608973 -9.596645 -0.523760 -18.048425 -3.773968 17.747673 -1.823588 -0.092427 0.544193 0.000000 -0.000000 0.000000 
-0.214822 94.224808 0.083405 -5.671200 -42.995378 -3.659653 5.733583 4.525741 -1.291081 11.629821 8.696614 -3.147943 0.000000 0.000000 0.000000 11.629819 8.696622 -3.147945 -4.189979 -0.576354 0.043483 -6.017090 20.421161 -0.295642 0.000000 -0.000000 -0.000000 1.380121 -0.996759 -8.053121 0.000000 0.000000 0.000000 -14.173308 2.709386 -62.680940 9.587362 -47.246686 5.801172 16.163767 0.571980 18.440114 8.124630 4.043962 -5.653114 -0.446825 1.595461 -0.110210 0.000002 0.000006 0.000005 -0.000000 0.000002 0.000002 -1.182653 -6.814269 -6.019491 0.012811 0.363566 -19.154340 -0.000001 0.000005 -0.000005 2.116425 8.859739 -17.622218 -0.502089 -2.058232 -26.396219 -0.000002 0.000002 0.000000 2.764105 14.158141 -34.618247 -0.416514 -2.836981 -35.640064 -0.000002 0.000002 -0.000000 4.332956 17.683382 -39.232531 -0.662766 -5.659987 -43.158743 0.000000 -0.000002 -0.000002 1.353089 9.120822 10.030861 0.000000 0.000000 0.000000 1.496268 -24.000615 60.284937 -5.499481 42.033124 7.478101 6.779203 12.246906 11.024415 -7.858787 -4.169036 0.765188 7.781535 -17.752254 -1.975162 0.000002 -0.000004 0.000001 -0.000000 -0.000000 -0.000001 -1.206881 -0.257594 3.105333 0.136263 -1.127645 16.886249 -0.000000 0.000001 -0.000001 -0.647820 -2.986979 11.671376 -0.658988 1.789967 30.358043 -0.000000 0.000000 -0.000001 2.561818 -7.792030 20.772969 -0.998022 3.749314 37.227157 -0.000001 0.000001 0.000001 3.778050 -10.770709 23.398819 -1.463334 7.861983 40.989659 -0.000001 0.000002 0.000003 -30.937069 4.799200 13.882000 33.775764 -13.596566 -0.115290 -0.537040 0.502519 -8.944116 -2.306641 -3.273470 0.881118 -0.000000 -0.000000 0.000000 -6.850554 -12.691636 -16.845528 32.892098 -10.034975 -0.581306 -18.065470 -3.792431 17.776039 -1.879052 0.180766 0.762058 0.000000 -0.000001 -0.000000 
-0.218466 94.200760 0.092025 -5.381860 -42.869255 -3.420310 5.681865 4.438475 -1.314963 11.522931 8.520903 -3.178272 0.000000 0.000000 0.000000 11.522932 8.520906 -3.178270 -4.372945 -0.187676 -0.099258 -5.842712 20.412138 -0.274204 -0.000000 0.000000 0.000000 1.373130 -1.153253 -8.144308 0.000000 0.000000 0.000000 -14.167247 2.845054 -62.375774 9.516524 -47.090370 5.789314 16.272649 0.371201 18.260299 7.615065 3.647143 -5.772874 -0.452401 2.437052 -0.597096 0.000003 0.000005 0.000008 0.000001 0.000001 0.000003 -1.323891 -6.703299 -7.245804 -0.006517 0.124184 -20.673150 0.000000 0.000000 0.000002 2.188764 8.425070 -19.334486 -0.544336 -2.326891 -28.903103 0.000003 0.000000 0.000001 2.823277 13.758656 -36.457074 -0.336090 -2.906755 -37.699916 -0.000004 0.000002 -0.000000 4.364274 17.223779 -41.585340 -0.634314 -5.587163 -45.342836 0.000001 0.000002 -0.000004 1.325413 8.962435 10.136580 0.000000 0.000000 0.000000 1.656974 -23.878772 60.164992 -4.869290 42.117702 7.144444 7.188146 12.148863 10.581806 -7.214459 -3.789427 1.485802 7.762080 -16.923534 -1.462399 0.000001 -0.000004 0.000000 0.000000 -0.000000 -0.000000 -1.250353 0.258057 2.275967 0.133630 -1.154120 16.687213 -0.000000 -0.000002 -0.000000 -0.639260 -3.039716 11.043623 -0.657390 1.764007 30.113385 -0.000000 -0.000000 -0.000001 2.629485 -8.011482 20.195447 -1.007284 3.732821 37.001249 -0.000000 0.000000 0.000003 3.924441 -11.172139 22.846802 -1.468906 7.850890 40.876374 -0.000000 0.000000 0.000000 -31.205382 4.704829 13.769380 33.838516 -13.591341 -0.101082 -0.525091 0.501347 -8.966887 -2.300337 -3.297131 0.942822 -0.000000 0.000005 0.000000 -7.172437 -12.593796 -16.812010 33.163799 -10.556412 -0.648706 -18.070259 -3.814631 17.817404 -1.947739 0.463296 0.991962 -0.000000 0.000000 0.000000 
-0.217538 94.178024 0.103516 -5.046021 -42.689007 -3.162974 5.631223 4.350242 -1.332692 11.417962 8.343459 -3.198494 0.000000 0.000000 0.000000 11.417960 8.343449 -3.198489 -4.712090 0.239330 -0.274419 -5.628830 20.400711 -0.260408 -0.000000 -0.000000 -0.000000 1.365571 -1.313365 -8.238628 0.000000 0.000000 0.000000 -14.177989 2.972078 -62.078189 9.495119 -46.935964 5.816216 16.456969 0.166495 18.100739 7.112299 3.243230 -5.920982 -0.426302 3.318972 -1.108794 0.000004 0.000008 0.000011 -0.000000 0.000003 -0.000003 -1.462717 -6.574106 -8.548898 -0.034348 -0.127555 -22.288335 0.000001 0.000001 -0.000000 2.248045 7.976794 -21.155483 -0.602569 -2.610152 -31.569162 0.000001 0.000000 -0.000001 2.863671 13.341467 -38.423864 -0.255389 -2.984426 -39.916431 -0.000000 -0.000000 -0.000000 4.354562 16.733576 -44.083083 -0.598378 -5.510648 -47.712327 -0.000004 -0.000001 0.000001 1.299692 8.823658 10.220367 0.000000 0.000000 0.000000 1.828183 -23.749579 60.051679 -4.197118 42.197766 6.777229 7.685479 12.020375 10.059096 -6.488053 -3.394490 2.301345 7.769764 -16.020525 -0.905193 0.000002 -0.000004 0.000002 -0.000000 -0.000000 -0.000001 -1.276867 0.798073 1.367261 0.131014 -1.194076 16.374853 0.000001 -0.000002 -0.000000 -0.630558 -3.100024 10.351143 -0.655437 1.728643 29.779772 0.000001 -0.000002 -0.000003 2.694745 -8.248337 19.563168 -1.020031 3.710514 36.693197 0.000000 0.000000 -0.000003 4.066415 -11.603240 22.234523 -1.476581 7.835834 40.721919 -0.000001 -0.000000 -0.000002 -31.516385 4.580039 13.648262 33.888950 -13.662452 -0.086971 -0.491584 0.499940 -8.996364 -2.303799 -3.282727 1.002572 -0.000000 0.000001 -0.000000 -7.495794 -12.493863 -16.741980 33.419743 -11.158187 -0.725673 -18.061706 -3.840477 17.876535 -2.021484 0.753873 1.245262 0.000000 -0.000002 -0.000000 
-0.215599 94.151871 0.115406 -4.675428 -42.454707 -2.902192 5.583914 4.261115 -1.343562 11.319465 8.164374 -3.207698 0.000000 0.000000 0.000000 11.319464 8.164372 -3.207698 -5.175433 0.695299 -0.473784 -5.390410 20.377750 -0.249967 0.000001 0.000000 0.000000 1.357317 -1.477591 -8.335197 0.000000 0.000000 0.000000 -14.200410 3.094771 -61.787408 9.515677 -46.790149 5.877812 16.704057 -0.022853 17.972702 6.615393 2.834173 -6.093267 -0.374163 4.234665 -1.640083 0.000007 0.000005 0.000005 0.000001 -0.000001 0.000002 -1.596464 -6.429836 -9.913055 -0.071761 -0.389175 -23.980528 0.000004 -0.000000 -0.000001 2.290919 7.519074 -23.063126 -0.678221 -2.905075 -34.362798 0.000001 -0.000001 0.000000 2.882397 12.912196 -40.491998 -0.174832 -3.071367 -42.258083 -0.000002 -0.000001 0.000001 4.302002 16.223888 -46.694831 -0.553522 -5.432839 -50.229713 0.000002 0.000001 -0.000003 1.275550 8.698530 10.287013 0.000000 0.000000 0.000000 1.992775 -23.588852 59.940716 -3.483569 42.269066 6.384936 8.251558 11.874611 9.473880 -5.694455 -2.979548 3.194615 7.798523 -15.052817 -0.313825 0.000001 -0.000004 0.000001 -0.000001 -0.000000 -0.000001 -1.283411 1.358464 0.391540 0.128133 -1.245324 15.966991 -0.000001 -0.000000 -0.000000 -0.622106 -3.166851 9.604100 -0.653375 1.685404 29.371210 0.000001 0.000002 0.000001 2.756391 -8.500187 18.884585 -1.035814 3.683481 36.315931 0.000001 0.000001 0.000001 4.201537 -12.060021 21.570931 -1.486038 7.817457 40.532760 0.000001 -0.000000 -0.000002 -31.877101 4.421796 13.525001 33.952262 -13.766272 -0.072193 -0.447365 0.496837 -9.020800 -2.310592 -3.254029 1.052087 -0.000000 0.000001 0.000000 -7.815312 -12.396427 -16.632434 33.666508 -11.830373 -0.811151 -18.045589 -3.870000 17.957416 -2.090961 1.048634 1.533682 0.000000 0.000000 0.000000 
